<svg width="50" height="50" viewBox="0 0 50 50" fill="none" xmlns="http://www.w3.org/2000/svg">
<path d="M37.5 2.5H12.5C7 2.5 2.5 7 2.5 12.5V37.5C2.5 43 7 47.5 12.5 47.5H37.5C43 47.5 47.5 43 47.5 37.5V12.5C47.5 7 43 2.5 37.5 2.5Z" fill="#8D8DD8"/>
<path d="M46.5001 8.33333C45.0001 4.83333 41.5001 2.5 37.5001 2.5H30.6667C36.3334 3.5 41.6667 5.5 46.5001 8.33333Z" fill="#8585CC"/>
<path d="M2.5 12.5V37.5C2.5 43 7 47.5 12.5 47.5H37.5C43 47.5 47.5 43 47.5 37.5V14.8333C40.1667 9.66663 31.3333 6.66663 21.6667 6.66663C14.6667 6.66663 8.33333 9.412 2.5 12.2453C2.5 13.0281 2.5 12.3358 2.5 12.5Z" fill="#BD82F4"/>
<path d="M2.5 37.5C2.5 43 7 47.5 12.5 47.5H37.5C43 47.5 47.5 43 47.5 37.5V21.1666C40.5 15.1666 31.5 11.6666 21.6667 11.6666C14.6667 11.6666 8.16667 13.5 2.5 16.5V37.5Z" fill="#ED73F4"/>
<path d="M2.5 37.5C2.5 43 7 47.5 12.5 47.5H37.5C43 47.5 47.5 43 47.5 37.5V28.1666C41.1667 21.1666 31.8333 16.6666 21.6667 16.6666C14.6667 16.6666 8 18.8333 2.5 22.3333V37.5Z" fill="#F97DCD"/>
<path d="M2.5 37.5C2.5 43 7 47.5 12.5 47.5H37.5C43 47.5 47.5 43 47.5 37.5V36.5C42.3333 27.6666 32.6667 21.6666 21.6667 21.6666C14.3333 21.6666 7.66667 24.3333 2.5 28.6666V37.5Z" fill="#FC9C95"/>
<path d="M2.5 37.5C2.5 43 7 47.5 12.5 47.5H37.5C40.6667 47.5 43.5 46 45.3333 43.6666C42 33.8333 32.6667 26.6666 21.6667 26.6666C14 26.6666 7.16667 30.1666 2.5 35.6666V37.5Z" fill="#FFAC99"/>
<path d="M12.4999 47.5H37.4999C38.8333 47.5 39.9999 47.3333 40.9999 46.8333C38.8333 38.1666 30.9999 31.6666 21.6666 31.6666C13.8333 31.6666 7.16659 36.1666 3.83325 42.5C5.66659 45.5 8.83325 47.5 12.4999 47.5Z" fill="#FFC49C"/>
<path d="M12.5001 47.5H36.0001C34.3334 41.1666 28.5001 36.6666 21.6667 36.6666C15.3334 36.6666 9.83341 40.6666 7.66675 46.3333C9.16675 47 10.8334 47.5 12.5001 47.5Z" fill="#FFDE8D"/>
<path d="M30.6667 47.5C29.1667 44 25.6667 41.6666 21.6667 41.6666C17.6667 41.6666 14.1667 44 12.6667 47.5H30.6667Z" fill="#FFF69F"/>
<path d="M31.6666 41.6667H18.3333C12.8333 41.6667 8.33325 37.1667 8.33325 31.6667V18.3334C8.33325 12.8334 12.8333 8.33337 18.3333 8.33337H31.6666C37.1666 8.33337 41.6666 12.8334 41.6666 18.3334V31.6667C41.6666 37.1667 37.1666 41.6667 31.6666 41.6667ZM18.3333 11.6667C14.6666 11.6667 11.6666 14.6667 11.6666 18.3334V31.6667C11.6666 35.3334 14.6666 38.3334 18.3333 38.3334H31.6666C35.3332 38.3334 38.3332 35.3334 38.3332 31.6667V18.3334C38.3332 14.6667 35.3332 11.6667 31.6666 11.6667H18.3333Z" fill="white"/>
<path d="M25.0001 33.3333C20.3334 33.3333 16.6667 29.6667 16.6667 25C16.6667 20.3333 20.3334 16.6667 25.0001 16.6667C29.6667 16.6667 33.3334 20.3333 33.3334 25C33.3334 29.6667 29.6667 33.3333 25.0001 33.3333ZM25.0001 20C22.1667 20 20.0001 22.1667 20.0001 25C20.0001 27.8333 22.1667 30 25.0001 30C27.8334 30 30.0001 27.8333 30.0001 25C30.0001 22.1667 27.8334 20 25.0001 20ZM33.3334 15C32.8914 15 32.4675 15.1756 32.1549 15.4882C31.8423 15.8007 31.6667 16.2246 31.6667 16.6667C31.6667 17.1087 31.8423 17.5326 32.1549 17.8452C32.4675 18.1577 32.8914 18.3333 33.3334 18.3333C33.7754 18.3333 34.1994 18.1577 34.5119 17.8452C34.8245 17.5326 35.0001 17.1087 35.0001 16.6667C35.0001 16.2246 34.8245 15.8007 34.5119 15.4882C34.1994 15.1756 33.7754 15 33.3334 15Z" fill="white"/>
</svg>
