<svg width="25" height="25" viewBox="0 0 25 25" fill="none" xmlns="http://www.w3.org/2000/svg">
<g clip-path="url(#clip0)">
<path d="M19.1696 0.446411H5.7767C2.83027 0.446411 0.419556 2.85713 0.419556 5.80355V19.1964C0.419556 22.1428 2.83027 24.5536 5.7767 24.5536H19.1696C22.116 24.5536 24.5267 22.1428 24.5267 19.1964V5.80355C24.5267 2.85713 22.116 0.446411 19.1696 0.446411Z" fill="#95939F"/>
<path d="M23.9911 3.57141C23.1875 1.69641 21.3125 0.446411 19.1696 0.446411H15.5089C18.5446 0.982125 21.4018 2.05355 23.9911 3.57141Z" fill="#95939F"/>
<path d="M0.419577 5.80356V19.1964C0.419577 22.1428 2.83029 24.5536 5.77672 24.5536H19.1696C22.116 24.5536 24.5267 22.1428 24.5267 19.1964V7.05356C20.5982 4.2857 15.866 2.67856 10.6874 2.67856C6.93744 2.67856 3.54456 3.83927 0.419556 5.35713C0.508841 5.5357 0.419577 5.5357 0.419577 5.80356Z" fill="#95939F"/>
<path d="M0.419556 19.1964C0.419556 22.1428 2.83027 24.5535 5.7767 24.5535H19.1696C22.116 24.5535 24.5267 22.1428 24.5267 19.1964V10.4464C20.7767 7.23212 15.9553 5.35712 10.6874 5.35712C6.93741 5.35712 3.45527 6.33926 0.419556 7.9464V19.1964Z" fill="#95939F"/>
<path d="M0.419556 19.1964C0.419556 22.1428 2.83027 24.5536 5.7767 24.5536H19.1696C22.116 24.5536 24.5267 22.1428 24.5267 19.1964V14.1964C21.1338 10.4464 16.1338 8.03571 10.6874 8.03571C6.93741 8.03571 3.36598 9.19642 0.419556 11.0714V19.1964Z" fill="#95939F"/>
<path d="M0.419556 19.1964C0.419556 22.1428 2.83027 24.5535 5.7767 24.5535H19.1696C22.116 24.5535 24.5267 22.1428 24.5267 19.1964V18.6607C21.7588 13.9285 16.5803 10.7143 10.6874 10.7143C6.75884 10.7143 3.18741 12.1428 0.419556 14.4643V19.1964Z" fill="#95939F"/>
<path d="M0.419556 19.1964C0.419556 22.1429 2.83027 24.5536 5.7767 24.5536H19.1696C20.866 24.5536 22.3838 23.75 23.366 22.5C21.5803 17.2321 16.5803 13.3929 10.6874 13.3929C6.58027 13.3929 2.91956 15.2679 0.419556 18.2143V19.1964Z" fill="#95939F"/>
<path d="M5.77665 24.5536H19.1695C19.8838 24.5536 20.5088 24.4643 21.0445 24.1964C19.8838 19.5536 15.6874 16.0714 10.6874 16.0714C6.49093 16.0714 2.9195 18.4821 1.13379 21.875C2.11593 23.4821 3.81236 24.5536 5.77665 24.5536Z" fill="#95939F"/>
<path d="M5.77666 24.5535H18.3659C17.4731 21.1607 14.3481 18.75 10.6874 18.75C7.29452 18.75 4.34809 20.8928 3.18738 23.9285C3.99095 24.2857 4.88381 24.5535 5.77666 24.5535Z" fill="#95939F"/>
<path d="M15.5088 24.5536C14.7053 22.6786 12.8303 21.4286 10.6874 21.4286C8.54454 21.4286 6.66954 22.6786 5.86597 24.5536H15.5088Z" fill="#95939F"/>
<path d="M16.0446 21.4286H8.9017C5.95527 21.4286 3.54456 19.0178 3.54456 16.0714V8.92855C3.54456 5.98213 5.95527 3.57141 8.9017 3.57141H16.0446C18.991 3.57141 21.4017 5.98213 21.4017 8.92855V16.0714C21.4017 19.0178 18.991 21.4286 16.0446 21.4286ZM8.9017 5.35713C6.93741 5.35713 5.33027 6.96427 5.33027 8.92855V16.0714C5.33027 18.0357 6.93741 19.6428 8.9017 19.6428H16.0446C18.0088 19.6428 19.616 18.0357 19.616 16.0714V8.92855C19.616 6.96427 18.0088 5.35713 16.0446 5.35713H8.9017Z" fill="white"/>
<path d="M12.4732 16.9643C9.9732 16.9643 8.00891 15 8.00891 12.5C8.00891 10 9.9732 8.03571 12.4732 8.03571C14.9732 8.03571 16.9375 10 16.9375 12.5C16.9375 15 14.9732 16.9643 12.4732 16.9643ZM12.4732 9.82142C10.9553 9.82142 9.79463 10.9821 9.79463 12.5C9.79463 14.0179 10.9553 15.1786 12.4732 15.1786C13.9911 15.1786 15.1518 14.0179 15.1518 12.5C15.1518 10.9821 13.9911 9.82142 12.4732 9.82142ZM16.9375 7.14285C16.7007 7.14285 16.4736 7.23692 16.3061 7.40436C16.1387 7.57181 16.0446 7.79891 16.0446 8.03571C16.0446 8.27251 16.1387 8.49961 16.3061 8.66706C16.4736 8.8345 16.7007 8.92857 16.9375 8.92857C17.1743 8.92857 17.4014 8.8345 17.5688 8.66706C17.7363 8.49961 17.8303 8.27251 17.8303 8.03571C17.8303 7.79891 17.7363 7.57181 17.5688 7.40436C17.4014 7.23692 17.1743 7.14285 16.9375 7.14285Z" fill="white"/>
</g>
<defs>
<clipPath id="clip0">
<rect width="25" height="25" fill="white"/>
</clipPath>
</defs>
</svg>
