<svg width="14" height="14" viewBox="0 0 14 14" fill="none" xmlns="http://www.w3.org/2000/svg">
<path d="M13.2898 9.75344C12.945 9.58173 11.2516 8.74692 10.9366 8.6327C10.6202 8.51694 10.3911 8.46098 10.1612 8.80441C9.93131 9.14938 9.27157 9.92516 9.07082 10.1544C8.87006 10.3843 8.6693 10.4127 8.32449 10.241C7.97968 10.0693 6.86939 9.70438 5.55451 8.53074C4.53004 7.61774 3.83889 6.48933 3.63813 6.14436C3.43738 5.7994 3.61591 5.61312 3.78908 5.44141C3.94387 5.28656 4.1339 5.03895 4.30553 4.8381C4.47717 4.63726 4.53541 4.49314 4.65034 4.26316C4.76605 4.03319 4.70781 3.83158 4.62123 3.65986C4.53464 3.48815 3.84579 1.7917 3.55844 1.10254C3.27953 0.431008 2.99449 0.522231 2.783 0.511499C2.58225 0.500767 2.35237 0.5 2.12327 0.5C1.89339 0.5 1.52023 0.586625 1.2053 0.931588C0.890377 1.27655 0 2.10983 0 3.80551C0 5.5012 1.23442 7.14016 1.40606 7.36937C1.5777 7.59934 3.83429 11.0789 7.29083 12.5714C8.11224 12.9256 8.75512 13.1379 9.25395 13.2974C10.0784 13.5595 10.8301 13.5227 11.424 13.4338C12.086 13.3349 13.4622 12.6005 13.7487 11.7964C14.0361 10.9922 14.0361 10.3016 13.9495 10.159C13.8645 10.0118 13.6353 9.92516 13.2898 9.75344Z" fill="#95939F"/>
</svg>
