<svg width="30" height="27" viewBox="0 0 30 27" fill="none" xmlns="http://www.w3.org/2000/svg">
<path d="M20.5307 15.4883L17.5255 18.4935L26.0201 26.9881L29.0253 23.9829L20.5307 15.4883Z" fill="white"/>
<path d="M22.7917 11.1667C25.5258 11.1667 27.75 8.94251 27.75 6.20834C27.75 5.38668 27.5233 4.62168 27.1692 3.94168L23.3442 7.76667L21.2333 5.65584L25.0583 1.83084C24.3783 1.47667 23.6133 1.25001 22.7917 1.25001C20.0575 1.25001 17.8333 3.47418 17.8333 6.20834C17.8333 6.78918 17.9467 7.34167 18.1308 7.85167L15.51 10.4725L12.9883 7.95084L13.9942 6.94501L11.9967 4.94751L15 1.94417C13.3425 0.286675 10.6508 0.286675 8.99334 1.94417L3.97834 6.95918L5.97584 8.95667H1.98084L0.975006 9.96251L5.99001 14.9775L6.99584 13.9717V9.96251L8.99334 11.96L9.99917 10.9542L12.5208 13.4758L2.02334 23.9733L5.02667 26.9767L21.1483 10.8692C21.6583 11.0533 22.2108 11.1667 22.7917 11.1667Z" fill="white"/>
</svg>
