<svg width="25" height="25" viewBox="0 0 25 25" fill="none" xmlns="http://www.w3.org/2000/svg">
<path d="M20.8333 2.08337H4.16668C3.02084 2.08337 2.09376 3.02087 2.09376 4.16671L2.08334 22.9167L6.25001 18.75H20.8333C21.9792 18.75 22.9167 17.8125 22.9167 16.6667V4.16671C22.9167 3.02087 21.9792 2.08337 20.8333 2.08337ZM20.8333 16.6667H5.38543L4.77084 17.2813L4.16668 17.8855V4.16671H20.8333V16.6667ZM10.9375 14.5834H18.75V12.5H13.0208L10.9375 14.5834ZM14.9583 8.46879C15.1667 8.26046 15.1667 7.93754 14.9583 7.72921L13.1146 5.88546C12.9063 5.67712 12.5833 5.67712 12.375 5.88546L6.25001 12.0105V14.5834H8.82293L14.9583 8.46879Z" fill="#201E28"/>
</svg>
