<svg width="30" height="30" viewBox="0 0 30 30" fill="none" xmlns="http://www.w3.org/2000/svg">
<path d="M12.5 16.25C13.1875 16.25 13.75 16.8125 13.75 17.5C13.75 18.1875 13.1875 18.75 12.5 18.75C11.8125 18.75 11.25 18.1875 11.25 17.5C11.25 16.8125 11.8125 16.25 12.5 16.25ZM12.5 13.75C10.425 13.75 8.74999 15.425 8.74999 17.5C8.74999 19.575 10.425 21.25 12.5 21.25C14.575 21.25 16.25 19.575 16.25 17.5C16.25 15.425 14.575 13.75 12.5 13.75ZM23.125 11.25L24.4875 8.2375L27.5 6.875L24.4875 5.5125L23.125 2.5L21.7625 5.5125L18.75 6.875L21.7625 8.2375L23.125 11.25ZM26.6 15.9L25.625 13.75L24.65 15.9L22.5 16.875L24.65 17.85L25.625 20L26.6 17.85L28.75 16.875L26.6 15.9ZM20.3125 17.5C20.3125 17.35 20.3125 17.1875 20.3 17.0375L22.725 15.2L19.6 9.7875L16.8 10.9625C16.55 10.8 16.275 10.6375 16 10.5L15.625 7.5H9.37499L8.99999 10.5125C8.72499 10.65 8.46249 10.8125 8.19999 10.975L5.39999 9.7875L2.27499 15.2L4.69999 17.0375C4.68749 17.1875 4.68749 17.35 4.68749 17.5C4.68749 17.65 4.68749 17.8125 4.69999 17.9625L2.27499 19.8L5.39999 25.2125L8.19999 24.0375C8.44999 24.2 8.72499 24.3625 8.99999 24.5L9.37499 27.5H15.625L16 24.4875C16.275 24.35 16.5375 24.2 16.8 24.025L19.6 25.2L22.725 19.7875L20.3 17.95C20.3125 17.8125 20.3125 17.65 20.3125 17.5ZM18.5375 22.05L16.375 21.1375C15.675 21.8875 14.75 22.4375 13.7125 22.675L13.4125 25H11.5875L11.3 22.675C10.2625 22.4375 9.33749 21.8875 8.63749 21.1375L6.47499 22.05L5.56249 20.4625L7.42499 19.05C7.27499 18.5625 7.19999 18.05 7.19999 17.5125C7.19999 16.975 7.27499 16.4625 7.42499 15.975L5.56249 14.5625L6.47499 12.975L8.63749 13.8875C9.33749 13.1375 10.2625 12.5875 11.3 12.35L11.5875 10H13.425L13.7125 12.325C14.75 12.5625 15.675 13.1125 16.375 13.8625L18.5375 12.95L19.45 14.5375L17.5875 15.95C17.7375 16.4375 17.8125 16.95 17.8125 17.4875C17.8125 18.025 17.7375 18.5375 17.5875 19.025L19.45 20.4375L18.5375 22.05Z" fill="#201E28"/>
</svg>
