<svg width="25" height="25" viewBox="0 0 25 25" fill="none" xmlns="http://www.w3.org/2000/svg">
<path d="M12.5 0C5.59671 0 0 5.59671 0 12.5C0 19.4033 5.59671 25 12.5 25C19.4033 25 25 19.4033 25 12.5C25 5.59671 19.4033 0 12.5 0Z" fill="#95939F"/>
<path d="M19.6955 8.90856C19.7258 8.80922 19.7403 8.71711 19.7363 8.63488C19.7265 8.39672 19.5626 8.22369 19.1771 8.22369H17.4547C17.0199 8.22369 16.8192 8.48685 16.7021 8.75067C16.7021 8.75067 15.6284 10.9605 14.3909 12.4178C13.9896 12.8395 13.7857 12.829 13.5686 12.829C13.4521 12.829 13.158 12.6882 13.158 12.302V8.8908C13.158 8.43422 13.0442 8.22369 12.6765 8.22369H9.6179C9.35014 8.22369 9.21067 8.43422 9.21067 8.6454C9.21067 9.08422 9.80146 9.18948 9.86856 10.4191V12.8026C9.86856 13.3816 9.7679 13.4869 9.5508 13.4869C8.96527 13.4869 7.81264 11.5132 7.04093 8.92633C6.87382 8.41711 6.70672 8.22369 6.27185 8.22369H4.53304C4.03106 8.22369 3.94751 8.46975 3.94751 8.7329C3.94751 9.20725 4.34225 11.7717 6.49685 14.7204C8.05935 16.8586 10.1179 18.0921 11.9403 18.0921C13.0442 18.0921 13.1574 17.8112 13.1574 17.3724V15.4171C13.158 14.8901 13.2784 14.8026 13.6297 14.8026C13.8804 14.8026 14.3916 14.9671 15.3784 16.1184C16.5166 17.4461 16.7232 18.0921 17.3758 18.0921H19.0982C19.4982 18.0921 19.7278 17.9244 19.737 17.5987C19.739 17.5158 19.7271 17.423 19.7001 17.3197C19.5725 16.9408 18.987 16.0145 18.2567 15.1316C17.8521 14.6428 17.4528 14.1586 17.2692 13.8954C17.1462 13.7237 17.0995 13.6026 17.1054 13.4869C17.1113 13.3651 17.1745 13.2494 17.2692 13.0875C17.2521 13.0875 19.4784 9.96185 19.6955 8.90856Z" fill="white"/>
</svg>
