<svg width="50" height="50" viewBox="0 0 50 50" fill="none" xmlns="http://www.w3.org/2000/svg">
<path d="M25 1.25C11.8837 1.25 1.25 11.8837 1.25 25C1.25 38.1163 11.8837 48.75 25 48.75C38.1163 48.75 48.75 38.1163 48.75 25C48.75 11.8837 38.1163 1.25 25 1.25Z" fill="#4788C7"/>
<path d="M25 2.5C37.4063 2.5 47.5 12.5937 47.5 25C47.5 37.4063 37.4063 47.5 25 47.5C12.5937 47.5 2.5 37.4063 2.5 25C2.5 12.5937 12.5937 2.5 25 2.5ZM25 1.25C11.8837 1.25 1.25 11.8837 1.25 25C1.25 38.1163 11.8837 48.75 25 48.75C38.1163 48.75 48.75 38.1163 48.75 25C48.75 11.8837 38.1163 1.25 25 1.25Z" fill="#4788C7"/>
<path d="M38.6713 18.1763C38.7288 17.9875 38.7563 17.8125 38.7488 17.6562C38.73 17.2038 38.4188 16.875 37.6863 16.875H34.4138C33.5875 16.875 33.2062 17.375 32.9837 17.8762C32.9837 17.8762 30.9438 22.075 28.5925 24.8438C27.83 25.645 27.4425 25.625 27.03 25.625C26.8088 25.625 26.25 25.3575 26.25 24.6237V18.1425C26.25 17.275 26.0337 16.875 25.335 16.875H19.5238C19.015 16.875 18.75 17.275 18.75 17.6762C18.75 18.51 19.8725 18.71 20 21.0462V25.575C20 26.675 19.8088 26.875 19.3963 26.875C18.2838 26.875 16.0937 23.125 14.6275 18.21C14.31 17.2425 13.9925 16.875 13.1662 16.875H9.8625C8.90875 16.875 8.75 17.3425 8.75 17.8425C8.75 18.7438 9.5 23.6163 13.5938 29.2188C16.5625 33.2812 20.4738 35.625 23.9363 35.625C26.0338 35.625 26.2488 35.0913 26.2488 34.2575V30.5425C26.25 29.5413 26.4787 29.375 27.1462 29.375C27.6225 29.375 28.5938 29.6875 30.4688 31.875C32.6313 34.3975 33.0237 35.625 34.2637 35.625H37.5362C38.2962 35.625 38.7325 35.3063 38.75 34.6875C38.7538 34.53 38.7313 34.3538 38.68 34.1575C38.4375 33.4375 37.325 31.6775 35.9375 30C35.1687 29.0713 34.41 28.1513 34.0613 27.6513C33.8275 27.325 33.7388 27.095 33.75 26.875C33.7612 26.6437 33.8813 26.4237 34.0613 26.1162C34.0288 26.1162 38.2588 20.1775 38.6713 18.1763Z" fill="white"/>
</svg>
