<svg width="25" height="25" viewBox="0 0 25 25" fill="none" xmlns="http://www.w3.org/2000/svg">
<path d="M2.63812 18.3113L2.57312 18.1981C1.56812 16.4569 1.03624 14.4675 1.03687 12.445C1.03937 6.1 6.20374 0.9375 12.5487 0.9375C15.6275 0.93875 18.5194 2.13688 20.6925 4.31188C22.8656 6.48688 24.0625 9.37875 24.0625 12.4544C24.0594 18.8 18.895 23.9631 12.55 23.9631C10.6237 23.9619 8.72124 23.4781 7.04312 22.5631L6.93437 22.5031L1.06874 24.0406L2.63812 18.3113Z" fill="white"/>
<path d="M12.5487 1.25C15.5431 1.25063 18.3569 2.41687 20.4713 4.53312C22.5856 6.64937 23.75 9.4625 23.75 12.4544C23.7469 18.6281 18.7231 23.6506 12.5456 23.6506C10.6763 23.65 8.82562 23.1787 7.19312 22.2881L6.975 22.1694L6.735 22.2325L1.51375 23.6012L2.905 18.5194L2.97375 18.2675L2.84375 18.0419C1.865 16.3475 1.34812 14.4119 1.34937 12.445C1.35187 6.2725 6.37625 1.25 12.5487 1.25ZM12.5487 0.625C6.03187 0.625 0.726875 5.92813 0.72375 12.445C0.7225 14.5281 1.26688 16.5625 2.30188 18.3544L0.625 24.4806L6.89375 22.8369C8.62063 23.7788 10.5656 24.2744 12.545 24.2756H12.55C19.0669 24.2756 24.3719 18.9725 24.375 12.4544C24.375 9.29562 23.1463 6.325 20.9138 4.09063C18.6813 1.85688 15.7125 0.62625 12.5487 0.625Z" fill="#95939F"/>
<path d="M12.4969 21.875C10.9319 21.8744 9.38313 21.48 8.01813 20.7356L7.1225 20.2469L6.13563 20.5056L4.11 21.0369L4.62875 19.1431L4.91188 18.1081L4.375 17.1781C3.55688 15.7613 3.12438 14.1419 3.125 12.4956C3.1275 7.32875 7.3325 3.12563 12.4987 3.125C15.0056 3.12563 17.3606 4.10188 19.13 5.87313C20.9006 7.64438 21.875 9.99937 21.875 12.5031C21.8725 17.6706 17.6675 21.875 12.4969 21.875Z" fill="#95939F"/>
<path d="M17.675 14.805C17.3937 14.665 16.0125 13.9844 15.7556 13.8912C15.4975 13.7969 15.3106 13.7512 15.1231 14.0312C14.9356 14.3125 14.3975 14.945 14.2337 15.1319C14.07 15.3194 13.9062 15.3425 13.625 15.2025C13.3437 15.0625 12.4381 14.765 11.3656 13.8081C10.53 13.0637 9.96621 12.1437 9.80246 11.8625C9.63871 11.5812 9.78434 11.4294 9.92559 11.2894C10.0518 11.1631 10.2068 10.9612 10.3468 10.7975C10.4868 10.6337 10.5343 10.5162 10.6281 10.3287C10.7225 10.1412 10.675 9.97687 10.6043 9.83687C10.5337 9.69687 9.97184 8.31375 9.73746 7.75187C9.50996 7.20437 9.27746 7.27875 9.10496 7.27C8.94121 7.26125 8.75371 7.26062 8.56684 7.26062C8.37934 7.26062 8.07496 7.33125 7.81809 7.6125C7.56121 7.89375 6.83496 8.57312 6.83496 9.95562C6.83496 11.3381 7.84184 12.6744 7.98184 12.8612C8.12184 13.0487 9.96246 15.8856 12.7818 17.1025C13.4518 17.3912 13.9762 17.5644 14.3831 17.6944C15.0556 17.9081 15.6687 17.8781 16.1531 17.8056C16.6931 17.725 17.8156 17.1262 18.0493 16.4706C18.2837 15.815 18.2837 15.2519 18.2131 15.1356C18.1437 15.0156 17.9568 14.945 17.675 14.805Z" fill="white"/>
</svg>
