<svg width="50" height="50" viewBox="0 0 50 50" fill="none" xmlns="http://www.w3.org/2000/svg">
<path d="M5.27623 36.6225L5.14623 36.3963C3.13623 32.9138 2.07248 28.935 2.07373 24.89C2.07873 12.2 12.4075 1.875 25.0975 1.875C31.255 1.8775 37.0387 4.27375 41.385 8.62375C45.7312 12.9738 48.125 18.7575 48.125 24.9088C48.1187 37.6 37.79 47.9263 25.1 47.9263C21.2475 47.9238 17.4425 46.9563 14.0862 45.1263L13.8687 45.0063L2.13748 48.0813L5.27623 36.6225Z" fill="#F2FAFF"/>
<path d="M25.0975 2.5C31.0862 2.50125 36.7138 4.83375 40.9425 9.06625C45.1713 13.2987 47.5 18.925 47.5 24.9088C47.4938 37.2563 37.4462 47.3012 25.0912 47.3012C21.3525 47.3 17.6512 46.3575 14.3862 44.5762L13.95 44.3388L13.47 44.465L3.0275 47.2025L5.81 37.0388L5.9475 36.535L5.6875 36.0838C3.73 32.695 2.69625 28.8238 2.69875 24.89C2.70375 12.545 12.7525 2.5 25.0975 2.5ZM25.0975 1.25C12.0637 1.25 1.45375 11.8563 1.4475 24.89C1.445 29.0563 2.53375 33.125 4.60375 36.7088L1.25 48.9612L13.7875 45.6738C17.2412 47.5575 21.1313 48.5487 25.09 48.5512H25.1C38.1337 48.5512 48.7438 37.945 48.75 24.9088C48.75 18.5913 46.2925 12.65 41.8275 8.18125C37.3625 3.71375 31.425 1.2525 25.0975 1.25Z" fill="#79BA7E"/>
<path d="M24.9938 43.75C21.8638 43.7487 18.7663 42.96 16.0363 41.4712L14.245 40.4938L12.2713 41.0112L8.22 42.0738L9.2575 38.2862L9.82375 36.2162L8.75 34.3563C7.11375 31.5225 6.24875 28.2838 6.25 24.9913C6.255 14.6575 14.665 6.25125 24.9975 6.25C30.0113 6.25125 34.7213 8.20375 38.26 11.7463C41.8013 15.2888 43.75 19.9987 43.75 25.0062C43.745 35.3412 35.335 43.75 24.9938 43.75Z" fill="#79BA7E"/>
<path d="M35.3499 29.61C34.7874 29.33 32.0249 27.9687 31.5112 27.7825C30.9949 27.5937 30.6212 27.5025 30.2462 28.0625C29.8712 28.625 28.7949 29.89 28.4674 30.2637C28.1399 30.6387 27.8124 30.685 27.2499 30.405C26.6874 30.125 24.8762 29.53 22.7312 27.6162C21.0599 26.1275 19.9324 24.2875 19.6049 23.725C19.2774 23.1625 19.5687 22.8587 19.8512 22.5787C20.1037 22.3262 20.4137 21.9225 20.6937 21.595C20.9737 21.2675 21.0687 21.0325 21.2562 20.6575C21.4449 20.2825 21.3499 19.9537 21.2087 19.6737C21.0674 19.3937 19.9437 16.6275 19.4749 15.5037C19.0199 14.4087 18.5549 14.5575 18.2099 14.54C17.8824 14.5225 17.5074 14.5212 17.1337 14.5212C16.7587 14.5212 16.1499 14.6625 15.6362 15.225C15.1224 15.7875 13.6699 17.1462 13.6699 19.9112C13.6699 22.6762 15.6837 25.3487 15.9637 25.7225C16.2437 26.0975 19.9249 31.7712 25.5637 34.205C26.9037 34.7825 27.9524 35.1287 28.7662 35.3887C30.1112 35.8162 31.3374 35.7562 32.3062 35.6112C33.3862 35.45 35.6312 34.2525 36.0987 32.9412C36.5674 31.63 36.5674 30.5037 36.4262 30.2712C36.2874 30.0312 35.9137 29.89 35.3499 29.61Z" fill="white"/>
</svg>
