<svg width="16" height="17" viewBox="0 0 16 17" fill="none" xmlns="http://www.w3.org/2000/svg">
<path d="M7.99334 2.05209C4.31334 2.05209 1.33334 5.03876 1.33334 8.71876C1.33334 12.3988 4.31334 15.3854 7.99334 15.3854C11.68 15.3854 14.6667 12.3988 14.6667 8.71876C14.6667 5.03876 11.68 2.05209 7.99334 2.05209ZM8.00001 14.0521C5.05334 14.0521 2.66668 11.6654 2.66668 8.71876C2.66668 5.77209 5.05334 3.38543 8.00001 3.38543C10.9467 3.38543 13.3333 5.77209 13.3333 8.71876C13.3333 11.6654 10.9467 14.0521 8.00001 14.0521ZM8.33334 5.38543H7.33334V9.38543L10.8333 11.4854L11.3333 10.6654L8.33334 8.88543V5.38543Z" fill="#95939F"/>
</svg>
