<svg width="140" height="46" viewBox="0 0 140 46" fill="none" xmlns="http://www.w3.org/2000/svg">
<path d="M61.6019 19.0624L61.0426 16.9552H57.3529L56.7781 19.0624H53.4069L57.1121 7.77283H61.2058L64.9576 19.0624H61.6019ZM60.4057 14.4635L59.9163 12.6178C59.8024 12.2076 59.6626 11.677 59.4968 11.0259C59.3363 10.3748 59.2301 9.9082 59.1784 9.62622C59.1318 9.8877 59.0385 10.3184 58.8987 10.9182C58.7641 11.5181 58.4611 12.6998 57.9899 14.4635H60.4057Z" fill="#201E28"/>
<path d="M75.848 7.81897V14.5865C75.848 16.058 75.426 17.1987 74.5819 18.0088C73.743 18.8137 72.5312 19.2162 70.9466 19.2162C69.3982 19.2162 68.2071 18.824 67.3734 18.0395C66.5448 17.2551 66.1305 16.1272 66.1305 14.6558V7.81897H69.2143V14.4174C69.2143 15.212 69.3645 15.7888 69.6649 16.1477C69.9652 16.5066 70.408 16.686 70.9932 16.686C71.6198 16.686 72.0729 16.5092 72.3525 16.1554C72.6374 15.7965 72.7798 15.212 72.7798 14.402V7.81897H75.848Z" fill="#201E28"/>
<path d="M83.243 19.0624H80.1747V10.303H77.4016V7.81897H86.0083V10.303H83.243V19.0624Z" fill="#201E28"/>
<path d="M98.2581 13.4253C98.2581 15.3171 97.7895 16.7552 96.8521 17.7396C95.9148 18.724 94.5425 19.2162 92.7352 19.2162C90.9538 19.2162 89.5867 18.7214 88.6338 17.7319C87.6861 16.7424 87.2123 15.3018 87.2123 13.4099C87.2123 11.5386 87.6836 10.1107 88.6261 9.12634C89.5737 8.13684 90.9486 7.64209 92.7507 7.64209C94.5581 7.64209 95.9278 8.13171 96.8599 9.11096C97.792 10.0902 98.2581 11.5283 98.2581 13.4253ZM90.4437 13.4253C90.4437 15.5991 91.2076 16.686 92.7352 16.686C93.512 16.686 94.0868 16.422 94.4597 15.8939C94.8377 15.3658 95.0267 14.543 95.0267 13.4253C95.0267 12.3025 94.8351 11.4745 94.4519 10.9413C94.0739 10.403 93.5068 10.1338 92.7507 10.1338C91.2127 10.1338 90.4437 11.231 90.4437 13.4253Z" fill="#201E28"/>
<path d="M109.465 11.3953C109.465 12.6514 109.089 13.6229 108.338 14.3099C107.593 14.9918 106.531 15.3328 105.154 15.3328H104.291V19.0626H101.223V7.81921H105.154C106.588 7.81921 107.665 8.12939 108.385 8.74976C109.105 9.37012 109.465 10.252 109.465 11.3953ZM104.291 12.8564H104.851C105.312 12.8564 105.677 12.7283 105.946 12.4719C106.22 12.2156 106.358 11.8618 106.358 11.4106C106.358 10.6519 105.933 10.2725 105.084 10.2725H104.291V12.8564Z" fill="#FF3631"/>
<path d="M111.275 19.0626V7.81921H114.343V16.6094H118.716V19.0626H111.275Z" fill="#FF3631"/>
<path d="M130.189 7.81921V14.5868C130.189 16.0582 129.767 17.199 128.923 18.009C128.084 18.814 126.872 19.2164 125.288 19.2164C123.739 19.2164 122.548 18.8242 121.715 18.0398C120.886 17.2554 120.472 16.1274 120.472 14.656V7.81921H123.556V14.4176C123.556 15.2123 123.706 15.7891 124.006 16.1479C124.306 16.5068 124.749 16.6863 125.334 16.6863C125.961 16.6863 126.414 16.5094 126.694 16.1556C126.979 15.7968 127.121 15.2123 127.121 14.4022V7.81921H130.189Z" fill="#FF3631"/>
<path d="M140 15.6481C140 16.3453 139.821 16.9657 139.464 17.5092C139.107 18.0475 138.591 18.4679 137.918 18.7704C137.245 19.0677 136.455 19.2164 135.549 19.2164C134.793 19.2164 134.159 19.1652 133.646 19.0626C133.133 18.955 132.6 18.7704 132.046 18.5089V15.8019C132.631 16.0992 133.239 16.3325 133.871 16.5017C134.503 16.6658 135.083 16.7478 135.611 16.7478C136.067 16.7478 136.401 16.6709 136.613 16.5171C136.826 16.3582 136.932 16.1556 136.932 15.9095C136.932 15.7557 136.888 15.6224 136.8 15.5096C136.717 15.3917 136.58 15.2738 136.388 15.1559C136.202 15.038 135.699 14.797 134.881 14.433C134.14 14.0997 133.584 13.7767 133.211 13.464C132.843 13.1512 132.569 12.7924 132.388 12.3873C132.211 11.9823 132.123 11.5029 132.123 10.9492C132.123 9.91357 132.504 9.10608 133.265 8.52673C134.027 7.94739 135.073 7.65771 136.404 7.65771C137.579 7.65771 138.778 7.92688 140 8.46521L139.06 10.8108C137.998 10.3289 137.082 10.0879 136.31 10.0879C135.912 10.0879 135.622 10.1571 135.44 10.2955C135.259 10.434 135.168 10.6057 135.168 10.8108C135.168 11.0312 135.282 11.2286 135.51 11.403C135.743 11.5773 136.37 11.8951 137.39 12.3566C138.369 12.7924 139.047 13.2615 139.425 13.7639C139.808 14.2612 140 14.8893 140 15.6481Z" fill="#FF3631"/>
<path d="M61.4543 32.8845C61.4543 33.8843 61.0893 34.6687 60.3591 35.2378C59.6289 35.8069 58.6217 36.0914 57.3374 36.0914C56.0531 36.0914 55.0019 35.894 54.1837 35.4993V33.7612C54.7015 34.0022 55.2505 34.1919 55.8305 34.3303C56.4156 34.4688 56.9594 34.538 57.4617 34.538C58.197 34.538 58.7382 34.3995 59.0852 34.1227C59.4373 33.8458 59.6134 33.4741 59.6134 33.0076C59.6134 32.5872 59.4528 32.2308 59.1318 31.9386C58.8107 31.6464 58.1478 31.3003 57.1432 30.9004C56.1075 30.4851 55.3773 30.0109 54.9527 29.4777C54.5281 28.9445 54.3157 28.3036 54.3157 27.5551C54.3157 26.6168 54.6523 25.8785 55.3256 25.3402C55.9988 24.8019 56.9024 24.5327 58.0365 24.5327C59.124 24.5327 60.2063 24.7686 61.2834 25.2402L60.6931 26.7399C59.6833 26.3195 58.7822 26.1093 57.9899 26.1093C57.3892 26.1093 56.9335 26.24 56.6228 26.5015C56.3121 26.7578 56.1567 27.0988 56.1567 27.5243C56.1567 27.8165 56.2188 28.0677 56.3431 28.278C56.4674 28.483 56.672 28.6779 56.9568 28.8624C57.2416 29.047 57.7543 29.2905 58.4948 29.593C59.3286 29.9365 59.9396 30.257 60.328 30.5543C60.7164 30.8517 61.0012 31.1875 61.1825 31.5618C61.3637 31.936 61.4543 32.377 61.4543 32.8845Z" fill="#201E28"/>
<path d="M71.1718 28.0934C71.1718 29.2675 70.7835 30.1672 70.0067 30.7927C69.2299 31.4182 68.1243 31.731 66.6898 31.731H65.5091V35.9376H63.6526V24.6942H66.9229C68.3418 24.6942 69.4034 24.9813 70.1077 25.5555C70.8171 26.1298 71.1718 26.9757 71.1718 28.0934ZM65.5091 30.1852H66.4956C67.4485 30.1852 68.1476 30.0211 68.5929 29.693C69.0383 29.3649 69.261 28.8522 69.261 28.1549C69.261 27.5089 69.0616 27.027 68.6628 26.7091C68.2641 26.3912 67.6427 26.2323 66.7986 26.2323H65.5091V30.1852Z" fill="#201E28"/>
<path d="M73.44 24.6942H76.8113C78.3752 24.6942 79.5041 24.9198 80.198 25.371C80.8971 25.8221 81.2467 26.5348 81.2467 27.5089C81.2467 28.1652 81.0758 28.7112 80.734 29.147C80.3922 29.5828 79.9003 29.8571 79.2581 29.9698V30.0468C80.0556 30.1954 80.6408 30.4902 81.0136 30.9312C81.3917 31.3669 81.5807 31.9591 81.5807 32.7076C81.5807 33.7177 81.2234 34.5098 80.5087 35.084C79.7993 35.6531 78.8102 35.9376 77.5414 35.9376H73.44V24.6942ZM75.2965 29.3392H77.0831C77.8599 29.3392 78.427 29.2188 78.7843 28.9778C79.1416 28.7317 79.3203 28.3164 79.3203 27.7319C79.3203 27.2039 79.1261 26.8219 78.7377 26.5861C78.3545 26.3502 77.7434 26.2323 76.9045 26.2323H75.2965V29.3392ZM75.2965 30.8312V34.3918H77.2696C78.0463 34.3918 78.6315 34.2457 79.0251 33.9535C79.4238 33.6561 79.6232 33.1896 79.6232 32.5538C79.6232 31.9694 79.4212 31.5361 79.0173 31.2542C78.6134 30.9722 77.9997 30.8312 77.1763 30.8312H75.2965Z" fill="#201E28"/>
<path d="M83.476 34.9763C83.476 34.6021 83.5744 34.3149 83.7712 34.115C83.968 33.915 84.2528 33.8151 84.6257 33.8151C85.0037 33.8151 85.2911 33.9202 85.4879 34.1304C85.6847 34.3354 85.7831 34.6174 85.7831 34.9763C85.7831 35.3403 85.6821 35.63 85.4801 35.8453C85.2833 36.0555 84.9985 36.1606 84.6257 36.1606C84.2528 36.1606 83.968 36.0555 83.7712 35.8453C83.5744 35.6351 83.476 35.3455 83.476 34.9763Z" fill="#201E28"/>
<path d="M90.1796 29.9237H91.4691C92.3339 29.9237 92.9605 29.7648 93.3489 29.4469C93.7373 29.129 93.9315 28.6573 93.9315 28.0319C93.9315 27.3961 93.7217 26.9398 93.3023 26.663C92.8828 26.3861 92.251 26.2477 91.4069 26.2477H90.1796V29.9237ZM90.1796 31.4464V35.9376H88.3231V24.6942H91.5312C92.9967 24.6942 94.0816 24.9659 94.7859 25.5094C95.4902 26.0529 95.8424 26.8732 95.8424 27.9703C95.8424 29.37 95.107 30.3672 93.6363 30.9619L96.8444 35.9376H94.7316L92.0128 31.4464H90.1796Z" fill="#201E28"/>
<path d="M107.401 24.6942V31.9694C107.401 32.7999 107.22 33.528 106.857 34.1534C106.5 34.7738 105.979 35.2532 105.296 35.5916C104.617 35.9248 103.804 36.0914 102.857 36.0914C101.448 36.0914 100.353 35.7223 99.5709 34.984C98.7889 34.2457 98.398 33.2306 98.398 31.9386V24.6942H100.262V31.8079C100.262 32.7358 100.48 33.4203 100.915 33.8612C101.35 34.3021 102.018 34.5226 102.919 34.5226C104.669 34.5226 105.544 33.6125 105.544 31.7925V24.6942H107.401Z" fill="#201E28"/>
<path d="M0 23C0 10.5736 10.1862 0.5 22.6126 0.5C35.164 0.5 45.4527 10.6749 45.4527 23.2263V41.4091C45.4527 43.6684 43.6211 45.5 41.3618 45.5H22.5C10.0736 45.5 0 35.4264 0 23Z" fill="#F2F2F2"/>
<path fill-rule="evenodd" clip-rule="evenodd" d="M12.0424 19.6029L15.5424 12.5H30.1787L33.6787 19.6029L36.8606 20.8382V22.6912H34.9515L35.5878 23.9265V32.8824L34.6333 33.5H30.8151L30.1787 32.8824V30.7206H15.8606V32.8824L15.2242 33.5H11.0878L10.1333 32.8824V23.9265L11.0878 22.6912H8.86057V20.8382L12.0424 19.6029Z" fill="#201E28"/>
<path d="M32.0829 20.832H13.9465C13.9465 20.832 15.2192 14.0378 16.8101 14.0378H28.9011C30.4283 14.0378 31.6586 18.5673 32.0829 20.832Z" fill="#F2F2F2"/>
<path d="M30.8151 23.6177H33.9969V26.3971H28.5878V25.1618L30.8151 23.6177Z" fill="#F2F2F2"/>
<path d="M30.8151 23.6177H33.9969V26.3971H28.5878V25.1618L30.8151 23.6177Z" fill="#F2F2F2"/>
<path d="M17.4515 25.1618L15.2243 23.6177H13.6334H12.0424V26.3971H17.4515V25.1618Z" fill="#F2F2F2"/>
</svg>
