<svg width="140" height="45" viewBox="0 0 140 45" fill="none" xmlns="http://www.w3.org/2000/svg">
<path d="M61.6019 18.5625L61.0426 16.4553H57.3529L56.7781 18.5625H53.4069L57.1121 7.27294H61.2058L64.9576 18.5625H61.6019ZM60.4057 13.9636L59.9163 12.1179C59.8024 11.7078 59.6626 11.1771 59.4968 10.526C59.3363 9.87487 59.2301 9.40832 59.1784 9.12633C59.1318 9.38781 59.0385 9.81847 58.8987 10.4183C58.7641 11.0182 58.4611 12.1999 57.9899 13.9636H60.4057Z" fill="white"/>
<path d="M75.848 7.31908V14.0867C75.848 15.5581 75.426 16.6988 74.5819 17.5089C73.743 18.3138 72.5312 18.7163 70.9466 18.7163C69.3982 18.7163 68.2071 18.3241 67.3734 17.5397C66.5448 16.7552 66.1305 15.6273 66.1305 14.1559V7.31908H69.2143V13.9175C69.2143 14.7121 69.3645 15.2889 69.6649 15.6478C69.9652 16.0067 70.408 16.1861 70.9932 16.1861C71.6198 16.1861 72.0729 16.0093 72.3525 15.6555C72.6374 15.2966 72.7798 14.7121 72.7798 13.9021V7.31908H75.848Z" fill="white"/>
<path d="M83.243 18.5625H80.1747V9.80309H77.4016V7.31908H86.0083V9.80309H83.243V18.5625Z" fill="white"/>
<path d="M98.2581 12.9254C98.2581 14.8173 97.7895 16.2554 96.8521 17.2397C95.9148 18.2241 94.5425 18.7163 92.7352 18.7163C90.9538 18.7163 89.5867 18.2215 88.6338 17.232C87.6862 16.2425 87.2123 14.8019 87.2123 12.91C87.2123 11.0387 87.6836 9.61083 88.6261 8.62646C89.5737 7.63696 90.9486 7.1422 92.7507 7.1422C94.5581 7.1422 95.9278 7.63183 96.8599 8.61108C97.792 9.59032 98.2581 11.0284 98.2581 12.9254ZM90.4437 12.9254C90.4437 15.0992 91.2075 16.1861 92.7352 16.1861C93.512 16.1861 94.0868 15.9221 94.4597 15.394C94.8377 14.866 95.0267 14.0431 95.0267 12.9254C95.0267 11.8026 94.8351 10.9746 94.4519 10.4414C94.0739 9.90307 93.5068 9.6339 92.7507 9.6339C91.2127 9.6339 90.4437 10.7311 90.4437 12.9254Z" fill="white"/>
<path d="M109.465 10.8952C109.465 12.1513 109.089 13.1228 108.338 13.8098C107.593 14.4917 106.531 14.8327 105.154 14.8327H104.291V18.5625H101.223V7.31911H105.154C106.588 7.31911 107.665 7.6293 108.385 8.24966C109.105 8.87002 109.465 9.75185 109.465 10.8952ZM104.291 12.3563H104.851C105.312 12.3563 105.677 12.2282 105.946 11.9718C106.22 11.7155 106.358 11.3617 106.358 10.9105C106.358 10.1518 105.933 9.77236 105.084 9.77236H104.291V12.3563Z" fill="#F9615D"/>
<path d="M111.275 18.5625V7.31911H114.343V16.1093H118.716V18.5625H111.275Z" fill="#F9615D"/>
<path d="M130.189 7.31911V14.0867C130.189 15.5581 129.767 16.6989 128.923 17.5089C128.084 18.3139 126.872 18.7163 125.288 18.7163C123.739 18.7163 122.548 18.3241 121.715 17.5397C120.886 16.7553 120.472 15.6273 120.472 14.1559V7.31911H123.556V13.9175C123.556 14.7122 123.706 15.289 124.006 15.6479C124.306 16.0067 124.749 16.1862 125.334 16.1862C125.961 16.1862 126.414 16.0093 126.694 15.6555C126.979 15.2967 127.121 14.7122 127.121 13.9021V7.31911H130.189Z" fill="#F9615D"/>
<path d="M140 15.148C140 15.8452 139.821 16.4656 139.464 17.0091C139.107 17.5474 138.591 17.9678 137.918 18.2703C137.245 18.5676 136.455 18.7163 135.549 18.7163C134.793 18.7163 134.159 18.6651 133.646 18.5625C133.133 18.4549 132.6 18.2703 132.046 18.0088V15.3018C132.631 15.5991 133.239 15.8324 133.871 16.0016C134.503 16.1657 135.083 16.2477 135.611 16.2477C136.067 16.2477 136.401 16.1708 136.613 16.017C136.826 15.8581 136.932 15.6555 136.932 15.4094C136.932 15.2556 136.888 15.1223 136.8 15.0095C136.717 14.8916 136.58 14.7737 136.388 14.6558C136.202 14.5379 135.699 14.2969 134.881 13.9329C134.14 13.5996 133.584 13.2766 133.211 12.9639C132.843 12.6511 132.569 12.2923 132.388 11.8872C132.211 11.4822 132.123 11.0028 132.123 10.4491C132.123 9.41348 132.504 8.60598 133.265 8.02663C134.027 7.44729 135.073 7.15762 136.404 7.15762C137.579 7.15762 138.778 7.42678 140 7.96511L139.06 10.3107C137.998 9.82876 137.082 9.58779 136.31 9.58779C135.912 9.58779 135.622 9.65701 135.44 9.79543C135.259 9.93386 135.168 10.1056 135.168 10.3107C135.168 10.5312 135.282 10.7285 135.51 10.9029C135.743 11.0772 136.37 11.395 137.39 11.8565C138.369 12.2923 139.047 12.7614 139.425 13.2638C139.808 13.7611 140 14.3892 140 15.148Z" fill="#F9615D"/>
<path d="M61.4543 32.3844C61.4543 33.3842 61.0893 34.1686 60.3591 34.7377C59.6289 35.3068 58.6217 35.5913 57.3374 35.5913C56.0531 35.5913 55.0019 35.3939 54.1837 34.9992V33.2611C54.7015 33.5021 55.2505 33.6918 55.8305 33.8302C56.4156 33.9686 56.9594 34.0378 57.4617 34.0378C58.197 34.0378 58.7382 33.8994 59.0852 33.6226C59.4373 33.3457 59.6134 32.974 59.6134 32.5075C59.6134 32.087 59.4528 31.7307 59.1318 31.4385C58.8107 31.1462 58.1478 30.8002 57.1432 30.4003C56.1075 29.985 55.3773 29.5107 54.9527 28.9775C54.5281 28.4443 54.3157 27.8035 54.3157 27.0549C54.3157 26.1167 54.6523 25.3784 55.3256 24.8401C55.9988 24.3018 56.9024 24.0326 58.0365 24.0326C59.124 24.0326 60.2063 24.2684 61.2834 24.7401L60.6931 26.2398C59.6833 25.8193 58.7822 25.6091 57.9899 25.6091C57.3892 25.6091 56.9335 25.7399 56.6228 26.0014C56.3121 26.2577 56.1567 26.5986 56.1567 27.0242C56.1567 27.3164 56.2188 27.5676 56.3431 27.7778C56.4674 27.9829 56.672 28.1777 56.9568 28.3623C57.2416 28.5469 57.7543 28.7904 58.4948 29.0929C59.3286 29.4364 59.9396 29.7568 60.328 30.0542C60.7164 30.3516 61.0012 30.6874 61.1825 31.0617C61.3637 31.4359 61.4543 31.8768 61.4543 32.3844Z" fill="white"/>
<path d="M71.1718 27.5933C71.1718 28.7673 70.7835 29.6671 70.0067 30.2926C69.2299 30.9181 68.1243 31.2308 66.6898 31.2308H65.5091V35.4375H63.6526V24.1941H66.9229C68.3418 24.1941 69.4034 24.4812 70.1077 25.0554C70.8171 25.6296 71.1718 26.4756 71.1718 27.5933ZM65.5091 29.6851H66.4956C67.4485 29.6851 68.1476 29.521 68.5929 29.1929C69.0383 28.8648 69.261 28.3521 69.261 27.6548C69.261 27.0088 69.0616 26.5269 68.6628 26.209C68.2641 25.8911 67.6427 25.7322 66.7986 25.7322H65.5091V29.6851Z" fill="white"/>
<path d="M73.44 24.1941H76.8113C78.3752 24.1941 79.5041 24.4197 80.198 24.8709C80.8971 25.322 81.2467 26.0347 81.2467 27.0088C81.2467 27.665 81.0758 28.2111 80.734 28.6469C80.3922 29.0826 79.9003 29.3569 79.2581 29.4697V29.5466C80.0556 29.6953 80.6408 29.9901 81.0136 30.431C81.3917 30.8668 81.5807 31.459 81.5807 32.2075C81.5807 33.2175 81.2234 34.0097 80.5087 34.5839C79.7993 35.153 78.8102 35.4375 77.5414 35.4375H73.44V24.1941ZM75.2965 28.8391H77.0831C77.8599 28.8391 78.427 28.7186 78.7843 28.4777C79.1416 28.2316 79.3203 27.8163 79.3203 27.2318C79.3203 26.7037 79.1261 26.3218 78.7377 26.0859C78.3545 25.8501 77.7434 25.7322 76.9045 25.7322H75.2965V28.8391ZM75.2965 30.3311V33.8917H77.2696C78.0463 33.8917 78.6315 33.7456 79.0251 33.4534C79.4238 33.156 79.6232 32.6895 79.6232 32.0537C79.6232 31.4692 79.4212 31.036 79.0173 30.754C78.6134 30.4721 77.9997 30.3311 77.1763 30.3311H75.2965Z" fill="white"/>
<path d="M83.476 34.4762C83.476 34.1019 83.5744 33.8148 83.7712 33.6149C83.968 33.4149 84.2528 33.3149 84.6257 33.3149C85.0037 33.3149 85.2911 33.4201 85.4879 33.6303C85.6847 33.8353 85.7831 34.1173 85.7831 34.4762C85.7831 34.8402 85.6821 35.1299 85.4801 35.3452C85.2833 35.5554 84.9985 35.6605 84.6257 35.6605C84.2528 35.6605 83.968 35.5554 83.7712 35.3452C83.5744 35.135 83.476 34.8453 83.476 34.4762Z" fill="white"/>
<path d="M90.1796 29.4236H91.4691C92.3339 29.4236 92.9605 29.2647 93.3489 28.9468C93.7373 28.6289 93.9315 28.1572 93.9315 27.5317C93.9315 26.896 93.7217 26.4397 93.3023 26.1628C92.8828 25.886 92.251 25.7476 91.4069 25.7476H90.1796V29.4236ZM90.1796 30.9463V35.4375H88.3231V24.1941H91.5312C92.9967 24.1941 94.0817 24.4658 94.7859 25.0093C95.4902 25.5527 95.8423 26.3731 95.8423 27.4702C95.8423 28.8699 95.107 29.8671 93.6363 30.4618L96.8444 35.4375H94.7316L92.0128 30.9463H90.1796Z" fill="white"/>
<path d="M107.401 24.1941V31.4692C107.401 32.2998 107.22 33.0278 106.857 33.6533C106.5 34.2737 105.979 34.7531 105.296 35.0914C104.617 35.4247 103.804 35.5913 102.857 35.5913C101.448 35.5913 100.353 35.2222 99.5709 34.4839C98.7889 33.7456 98.398 32.7305 98.398 31.4385V24.1941H100.262V31.3077C100.262 32.2357 100.48 32.9202 100.915 33.3611C101.35 33.802 102.018 34.0225 102.919 34.0225C104.669 34.0225 105.544 33.1124 105.544 31.2924V24.1941H107.401Z" fill="white"/>
<path d="M0 22.5C0 10.0736 10.1862 0 22.6126 0V0C35.164 0 45.4527 10.1749 45.4527 22.7263V40.9091C45.4527 43.1684 43.6211 45 41.3618 45H22.5C10.0736 45 0 34.9264 0 22.5V22.5Z" fill="#F9615D"/>
<path fill-rule="evenodd" clip-rule="evenodd" d="M12.0424 19.1029L15.5424 12H30.1787L33.6787 19.1029L36.8606 20.3382V22.1912H34.9515L35.5878 23.4265V32.3824L34.6333 33H30.8151L30.1787 32.3824V30.2206H15.8606V32.3824L15.2242 33H11.0878L10.1333 32.3824V23.4265L11.0878 22.1912H8.86057V20.3382L12.0424 19.1029Z" fill="white"/>
<path d="M32.0829 20.332H13.9465C13.9465 20.332 15.2192 13.5379 16.8101 13.5379H28.9011C30.4283 13.5379 31.6586 18.0673 32.0829 20.332Z" fill="#F9615D"/>
<path d="M30.8151 23.1177H33.9969V25.8971H28.5878V24.6618L30.8151 23.1177Z" fill="#F9615D"/>
<path d="M30.8151 23.1177H33.9969V25.8971H28.5878V24.6618L30.8151 23.1177Z" fill="#F9615D"/>
<path d="M17.4515 24.6618L15.2243 23.1177H13.6334H12.0424V25.8971H17.4515V24.6618Z" fill="#F9615D"/>
</svg>
